<?xml version="1.0" encoding="UTF-8"?>
<svg id="Calque_1" data-name="Calque 1" xmlns="http://www.w3.org/2000/svg" viewBox="0 0 200 200">
  <defs>
    <style>
      .cls-1 {
        fill: #fcee21;
      }

      .cls-1, .cls-2, .cls-3, .cls-4, .cls-5, .cls-6, .cls-7, .cls-8, .cls-9 {
        stroke-width: 0px;
      }

      .cls-2 {
        fill: #ff1f38;
      }

      .cls-3 {
        fill: #fff;
      }

      .cls-4 {
        fill: #fbcb94;
      }

      .cls-5 {
        fill: #b7132a;
      }

      .cls-6 {
        fill: #e5b165;
      }

      .cls-7 {
        fill: #603813;
      }

      .cls-8 {
        fill: #d31631;
      }

      .cls-9 {
        fill: #ffd600;
      }
    </style>
  </defs>
  <g>
    <path class="cls-7" d="M82.01,122.24c-.28-2.11-.94-4.19-1.97-6.25-1.04-2.06-2.34-3.73-3.9-5.02-4.39-3.71-11.54-4.92-21.44-3.61-8.56,1.12-18.17,4.42-28.82,9.89-1.58,3.55-2.93,6.86-4.03,9.93-1.11,3.07-1.65,4.74-1.61,4.99.03.22.16.4.41.53.24.13.48.18.7.15.85-.47,2.25-1.26,4.2-2.38,1.95-1.11,4.17-2.32,6.66-3.6,2.5-1.29,5.53-2.59,9.09-3.91,3.57-1.31,7-2.25,10.31-2.81l-11.75,23.72c-4.31,1.58-7.48,3.36-9.53,5.35s-2.94,3.98-2.68,5.96c.12.89.66,1.75,1.61,2.57.95.81,2.22,1.41,3.79,1.79-2.14,5.41-3.71,9.74-4.7,12.97-.99,3.24-1.39,5.56-1.2,6.96.13.99.36,1.75.69,2.27.33.53.95.73,1.88.61.45-.06.88-.31,1.29-.76.41-.44.77-.94,1.07-1.5s.87-1.69,1.72-3.4c.85-1.7,1.53-3.07,2.04-4.12.36-.73.48-1.58.35-2.57-.06-.42-.35-.93-.89-1.55l3.28-8.42c3.31-.05,5.49-.14,6.54-.28,5.97-.79,11.37-2.27,16.19-4.44,4.81-2.18,8.88-4.95,12.21-8.31,3.33-3.37,5.73-7.14,7.21-11.31,1.48-4.18,1.91-8.66,1.28-13.45ZM76.19,130.61c-.8,2.38-2.25,4.83-4.37,7.37s-5.13,4.83-9.04,6.87c-3.91,2.04-8.66,3.43-14.25,4.17-.63.08-1.43.15-2.38.21-.95.06-2.04.14-3.26.24l2.13-4.96,7.1-2.35c.81-.27,1.18-.61,1.13-1.03-.06-.48-.35-.68-.86-.61l-6.18,1.54,6.61-14.18c1.4-2.94,1.99-5.25,1.77-6.91-.07-.51-.16-.94-.27-1.28,4.92-.65,8.97-.96,12.14-.94,3.17.02,5.67.51,7.48,1.48,1.82.96,2.86,2.48,3.14,4.56.19,1.5-.1,3.44-.89,5.82Z"/>
    <path class="cls-7" d="M101.6,129.25c-.12-.89-.47-1.54-1.04-1.95s-1.24-.56-2.01-.46c-1.15.15-2.17.99-3.06,2.51s-1.26,2.85-1.12,3.97c.1.74.47,1.32,1.11,1.73.64.41,1.28.57,1.92.49,1.2-.16,2.23-.97,3.11-2.44.87-1.47,1.23-2.75,1.09-3.85ZM102.59,154.84l-.33-2.51c-.25.27-.49.53-.72.78-1.73,1.85-3.17,3.25-4.34,4.19-1.33,1.07-2.59,1.69-3.79,1.85-1.1.14-2.04-.05-2.81-.57-.77-.52-1.21-1.24-1.33-2.16-.15-1.08.07-2.08.63-3.01.57-.93,1.82-2.62,3.76-5.06.7-.84,1.43-2.2,2.22-4.07.78-1.87,1.11-3.22,1-4.04-.15-1.2-1.01-1.7-2.57-1.49-3.02.4-5.97,3.66-8.85,9.78-.6,1.36-1.01,2.35-1.21,2.97s-.35,1.4-.43,2.34c-.09.93-.06,1.9.07,2.89.34,2.61,1.17,4.95,2.48,7.01s3.01,2.96,5.11,2.68c1.51-.2,3.23-1.25,5.16-3.16,1.93-1.9,3.93-4.61,5.99-8.14l-.04-.28Z"/>
    <path class="cls-7" d="M125.71,149.16l-.08.08-8.52,8.7c-.67-1.58-1.37-2.72-2.11-3.43-.73-.71-1.82-1.3-3.29-1.75,1.79-1.85,3.25-3.29,4.38-4.34,1.14-1.05,2.38-2.14,3.73-3.28,1.34-1.14,2.15-1.89,2.43-2.25.28-.36.39-.72.34-1.08-.05-.38-.53-1.99-1.45-4.84-.35-1.07-.82-1.57-1.41-1.49-.71.1-2,.53-3.86,1.31-1.86.78-3.43,1.25-4.71,1.42-.41.05-.63-.05-.66-.31-.04-.3.03-.53.22-.69.14-.09.2-.28.16-.56-.09-.69-.56-.98-1.4-.87-.74.1-1.69.73-2.85,1.89-1.16,1.17-2.14,2.44-2.93,3.82-.8,1.38-1.14,2.47-1.04,3.26.13.94.92,1.42,2.38,1.44-1.13,2.85-2.31,5.11-3.52,6.78l.02.14.36,2.7c.22-.29.45-.61.69-.97.56-.83,1.18-1.84,1.86-3.04.97-1.71,1.97-3.69,3-5.93,1.85-.4,3.78-.92,5.8-1.56s3.78-1.22,5.27-1.73c-8.7,7.91-12.99,12.36-12.86,13.35.12.9.89,1.48,2.31,1.75,1.43.27,2.5.58,3.23.94.72.36,1.34,1.43,1.86,3.2-2.65,2.38-4.76,4.38-6.32,6-1.57,1.63-2.89,3.19-3.95,4.69-1.06,1.51-1.83,2.98-2.3,4.42-.48,1.44-.61,2.92-.42,4.42.14,1.05.41,1.83.82,2.33.4.51,1.03.71,1.87.6.87-.12,2.16-.95,3.88-2.48,1.73-1.54,3.41-3.45,5.06-5.72,1.65-2.27,3.03-4.77,4.14-7.49,1.12-2.72,1.64-5.32,1.57-7.81l8.12-8.52.51-.53v-.04l-.33-2.53ZM110.97,172.3c-1.13,2.08-2.35,3.73-3.68,4.94-1.32,1.22-2.44,1.89-3.36,2.01-.51.07-.81-.2-.88-.78-.04-.31.46-1.26,1.51-2.85,1.05-1.6,2.33-3.31,3.83-5.13s3.09-3.49,4.76-5.01c-.32,2.46-1.05,4.73-2.18,6.82Z"/>
    <path class="cls-7" d="M149.4,146.04l-8.6,8.78c-.67-1.58-1.38-2.72-2.11-3.43-.73-.71-1.82-1.29-3.29-1.75,1.79-1.85,3.25-3.29,4.38-4.34,1.14-1.05,2.38-2.14,3.72-3.28,1.35-1.14,2.16-1.89,2.44-2.25.27-.36.39-.72.34-1.08-.05-.38-.53-1.99-1.45-4.84-.35-1.07-.82-1.57-1.41-1.49-.71.1-2,.53-3.86,1.31-1.86.78-3.43,1.25-4.71,1.42-.41.05-.63-.05-.66-.3-.04-.31.03-.54.22-.7.14-.09.19-.28.16-.56-.09-.69-.56-.98-1.4-.87-.75.1-1.7.73-2.85,1.9-1.16,1.16-2.14,2.43-2.93,3.81-.8,1.38-1.14,2.47-1.04,3.26.13.94.92,1.43,2.38,1.44-1.01,2.52-2.04,4.57-3.1,6.17-.14.21-.28.41-.42.61l.32,2.4h0s.51-.52.51-.52v-.04l.9-.99c.38-.6.78-1.27,1.2-2.01.97-1.72,1.97-3.7,3-5.94,1.85-.4,3.78-.92,5.8-1.56,2.02-.64,3.78-1.22,5.27-1.73-8.71,7.91-12.99,12.36-12.86,13.36.11.89.89,1.47,2.31,1.74,1.43.27,2.5.58,3.23.94.72.36,1.34,1.43,1.86,3.2-2.65,2.38-4.76,4.38-6.33,6-1.56,1.63-2.88,3.19-3.94,4.7-1.06,1.5-1.83,2.97-2.3,4.41-.48,1.44-.62,2.92-.42,4.43.14,1.04.41,1.82.82,2.33.4.5,1.03.7,1.87.59.87-.12,2.16-.94,3.88-2.48,1.72-1.54,3.41-3.45,5.06-5.72,1.65-2.27,3.03-4.77,4.14-7.49,1.11-2.72,1.64-5.32,1.57-7.81l8.63-9.05-.33-2.57ZM134.66,169.18c-1.13,2.08-2.36,3.73-3.68,4.95-1.32,1.21-2.44,1.88-3.36,2-.51.07-.81-.19-.88-.78-.04-.31.46-1.26,1.51-2.85,1.05-1.6,2.33-3.31,3.83-5.13s3.09-3.49,4.76-5.01c-.32,2.46-1.05,4.73-2.18,6.82Z"/>
  </g>
  <g>
    <path class="cls-7" d="M85.79,53.37c-.99-1.36-2.37-2.53-4.12-3.5-1.75-.97-3.68-1.69-5.77-2.14-2.09-.46-4.25-.72-6.46-.78-6.58-.11-12.88-1.41-18.89-3.9-.51-.19-1.1-.67-1.75-1.43-.65-.76-1.03-1.52-1.13-2.29-.37-2.81-.27-5.69.3-8.64.57-2.95,1.49-5.32,2.74-7.11,2.02-2.96,5.97-5.84,11.85-8.63,5.89-2.79,12.68-4.69,20.38-5.71,4.6-.61,8.2-.72,10.8-.35,2.6.37,4,1.3,4.19,2.76.32,2.4.23,4.29-.25,5.69-.48,1.4-1.07,2.36-1.77,2.89-.69.53-1.93,1.29-3.72,2.27-1.92.97-3.57,1.93-4.96,2.89-1.39.96-2.56,1.86-3.52,2.71-.96.84-1.57,1.28-1.83,1.31-.32.04-.5-.06-.53-.32-.07-.54.39-1.44,1.38-2.69.99-1.25,2.26-2.4,3.81-3.45,1.63-1.16,2.44-1.86,2.4-2.12-.05-.41-1.06-.49-3-.24-5.91.78-11.3,2.02-16.18,3.74-4.88,1.71-8.65,3.62-11.31,5.73-2.66,2.11-3.88,4.05-3.64,5.84.15,1.12.85,1.83,2.11,2.13,1.26.31,4,.73,8.24,1.28,4.23.55,8.05,1.31,11.47,2.29,4.89,1.37,8.6,2.98,11.12,4.82,2.52,1.85,3.95,4.09,4.3,6.74.24,1.82.04,3.71-.6,5.66-.64,1.95-1.7,3.81-3.19,5.56s-3.27,3.27-5.35,4.55c-1.78,1.05-4.05,2.11-6.82,3.19s-5.79,2.04-9.08,2.88c-3.28.84-6.45,1.46-9.48,1.86-5.59.74-10.16.8-13.7.19-3.54-.61-5.45-1.98-5.73-4.12-.13-.96.25-2.53,1.14-4.71s2.06-3.72,3.53-4.63c1.3-.72,2.59-1.21,3.85-1.46,1.27-.25,1.93-.18,1.98.2.01.1-.02.2-.11.31-.08.11-.19.2-.3.28-.12.08-.24.16-.36.24-.61.34-1.1.61-1.48.8-.38.2-.68.38-.9.56-.22.17-.31.39-.28.65.09.67,3.44.57,10.05-.3,5.75-.76,10.43-1.59,14.05-2.48,3.62-.9,6.76-2.08,9.43-3.53,2.67-1.45,5.02-3.29,7.07-5.51Z"/>
    <path class="cls-7" d="M118,50.93l.37,2.8c-2.06,3.52-4.05,6.23-5.99,8.14-1.93,1.91-3.65,2.96-5.16,3.16-2.1.28-3.8-.62-5.11-2.68-1.31-2.06-2.14-4.4-2.48-7-.13-1-.15-1.96-.07-2.9.08-.93.23-1.71.43-2.34.2-.62.61-1.61,1.21-2.97,2.89-6.13,5.83-9.39,8.85-9.78,1.56-.21,2.42.29,2.58,1.49.11.82-.23,2.16-1.01,4.03-.78,1.87-1.52,3.23-2.21,4.07-1.94,2.44-3.19,4.13-3.76,5.06-.57.93-.78,1.94-.64,3.01.12.92.57,1.64,1.34,2.16.77.52,1.71.71,2.8.57,1.2-.16,2.46-.77,3.79-1.84,1.33-1.07,3.01-2.73,5.06-4.97ZM113.13,34.14c-.64.08-1.28-.08-1.92-.49s-1.01-.99-1.11-1.73c-.15-1.12.22-2.45,1.12-3.97.89-1.52,1.91-2.36,3.06-2.51.77-.1,1.44.05,2.01.46.57.41.92,1.05,1.04,1.95.14,1.1-.22,2.38-1.09,3.85s-1.91,2.28-3.11,2.44Z"/>
    <path class="cls-7" d="M117.63,54.41l-.37-2.84c1.21-1.67,2.38-3.93,3.52-6.78-1.46-.02-2.25-.5-2.37-1.44-.1-.79.24-1.88,1.03-3.26s1.77-2.65,2.93-3.82c1.16-1.17,2.11-1.8,2.85-1.9.84-.11,1.31.18,1.4.87.04.28-.02.47-.16.57-.19.15-.26.39-.22.69.03.26.25.36.66.3,1.28-.17,2.85-.64,4.71-1.42,1.86-.78,3.15-1.21,3.86-1.31.59-.08,1.06.42,1.4,1.49.92,2.84,1.41,4.46,1.46,4.84.05.36-.07.72-.34,1.08-.28.36-1.09,1.11-2.43,2.25s-2.59,2.23-3.72,3.28c-1.14,1.05-2.6,2.49-4.38,4.34,1.47.46,2.56,1.04,3.29,1.75.73.71,1.43,1.85,2.11,3.43l8.59-8.77.34,2.57-8.63,9.05c.07,2.49-.45,5.09-1.56,7.81-1.11,2.72-2.49,5.21-4.14,7.49-1.65,2.27-3.34,4.18-5.06,5.71-1.72,1.54-3.02,2.37-3.89,2.48-.84.11-1.47-.09-1.87-.59-.4-.51-.68-1.28-.81-2.33-.2-1.51-.06-2.98.41-4.42.47-1.44,1.24-2.91,2.3-4.42,1.06-1.5,2.38-3.07,3.95-4.69s3.68-3.62,6.33-6c-.52-1.78-1.14-2.85-1.87-3.21-.72-.36-1.8-.67-3.22-.94s-2.2-.85-2.31-1.74c-.13-1,4.16-5.45,12.86-13.35-1.49.51-3.25,1.08-5.27,1.73-2.02.64-3.95,1.16-5.8,1.56-1.03,2.24-2.03,4.22-3,5.93-.97,1.71-1.82,3.05-2.55,4ZM128.89,64.08c-1.67,1.52-3.26,3.19-4.76,5.01-1.5,1.82-2.78,3.53-3.83,5.13-1.05,1.59-1.56,2.55-1.52,2.85.08.59.37.85.88.78.92-.12,2.04-.79,3.36-2,1.32-1.21,2.55-2.86,3.68-4.95,1.13-2.08,1.86-4.36,2.18-6.82Z"/>
    <path class="cls-7" d="M147.65,48.43l.13.96c.2,1.51.72,2.63,1.58,3.38s1.88,1.04,3.08.88c1.25-.17,2.51-.63,3.78-1.39,1.26-.76,2.5-1.72,3.7-2.87,1.2-1.15,2.65-2.66,4.35-4.55l.31,2.34c-2.43,3.85-4.79,6.88-7.08,9.06-2.29,2.19-4.73,3.45-7.34,3.79-2.27.3-4.19-.34-5.75-1.93s-2.54-3.92-2.95-6.98c-.35-2.68-.05-5.2.92-7.55.96-2.35,2.7-4.92,5.22-7.73,1.72-1.92,3.49-3.42,5.29-4.52,1.8-1.1,3.46-1.74,4.97-1.94,1.2-.16,2.19,0,2.96.45.77.46,1.24,1.23,1.38,2.33.21,1.61-.18,3.29-1.17,5.05-.99,1.75-2.61,3.58-4.87,5.48-2.26,1.9-5.09,3.81-8.51,5.74ZM147.71,45.89c2.18-1.2,4-2.57,5.46-4.11,1.46-1.54,2.5-2.97,3.12-4.29.62-1.32.89-2.26.82-2.82-.08-.59-.38-.85-.92-.78-.46.06-1.17.45-2.12,1.18-.96.72-1.91,1.63-2.84,2.71-.93,1.08-1.74,2.32-2.42,3.71s-1.04,2.85-1.1,4.4Z"/>
  </g>
  <path class="cls-9" d="M144.12,96.49c-3.82-4.77-2.52-11.65-1.68-14.69h0c.13-.51.26-.89.35-1.15.01-.08.05-.18.05-.28.64-3.98-2.66-8.1-7.28-7.47l-3.5.46s-2.39,7.27-11.44,11.45c-9.06,4.17-6.87-9.01-6.87-9.01l-9.81,1.3-35.32,4.72s-.07.59-.11,1.62c-.07,1.51-.09,3.96.29,6.78h0c.43,3.36,1.4,7.22,3.45,10.65,2.26,3.83,5.05,4.64,7.67,5.45,3.07.94,5.91,1.89,7.46,7.65,1.32,4.85,1.32,8.65,1.63,12.04.07.65.13,1.29.23,1.92.05.28.1.57.15.87.07.33.15.66.23.99.03.18.08.35.15.53.15-.43.33-.88.53-1.32,1.04-2.15,2.88-4.27,6.18-4.5,1.54-.12,3.25,1.5,5.66,1.12,1.13-.18,4.49-4.05,5.47-4.36,6.3-2.11,3.85-9.15,10.4-10.11,4.77-.71,4.7-6.45,6.63-8.38,2.67-2.69,3.73,3.76.92,9.35-2.78,5.6,13.12,7.66,10.3,0-4.14-11.16-4.88-21.34.23-18.54,5.13,2.79-2.15,6.58,1.67,9.16,3.79,2.57,11.39,0,6.36-6.25ZM86.73,84.06c4.21,0,7.62,3.42,7.62,7.63s-3.41,7.62-7.62,7.62-7.63-3.42-7.63-7.62,3.41-7.63,7.63-7.63ZM113.41,104.26c-.05.45-.14.88-.27,1.3-.06.21-.14.41-.22.61-.26.6-.6,1.15-1,1.65-1.22,1.48-3.07,2.42-5.14,2.42-3.69,0-6.67-2.98-6.67-6.66s2.98-6.67,6.67-6.67c2.07,0,3.92.95,5.14,2.42.4.5.74,1.05,1,1.65.08.2.16.41.22.62.13.41.22.85.27,1.3.02.22.03.45.03.68s-.01.46-.03.68ZM126.36,94.75c-2.96,0-5.35-2.39-5.35-5.34s2.39-5.35,5.35-5.35,5.34,2.4,5.34,5.35-2.39,5.34-5.34,5.34Z"/>
  <path class="cls-6" d="M89.77,130.32v.02c-.16.43-.37,1.38-.58,2.15h0c-.14.51-.28.94-.4,1.1-.02.03-.04.04-.06.06-1.37.63-2.54,1.32-3.35,2.56-.51.76-.41,1.33-.81,1.38-.47.07-1.76-1.8-1.99-2.22,0,0-.04-.08-.09-.22.16-.53.4-1.33.65-2.31,1.09-4.19,2.55-11.67.34-15.66,0-.01-.01-.01-.01-.02-1.9-8.74-9.59-11.08-13.78-11.72-1.63-.24-2.14.12-2.74-.23-3.26-1.91-7.19-13.36-7.19-13.36-2.16-3.99.37-8.91,4.85-9.5l4.01-.53s-.07.59-.11,1.62c-.07,1.51-.09,3.96.29,6.78h0c.43,3.36,1.4,7.22,3.45,10.65,2.26,3.83,5.05,4.64,7.67,5.45,3.07.94,5.91,1.89,7.46,7.65,1.32,4.85,1.32,8.65,1.63,12.04.07.65.13,1.29.23,1.92.05.28.1.57.15.87.07.33.15.66.23.99.03.18.08.35.15.53Z"/>
  <path class="cls-2" d="M94.36,91.69c0,4.21-3.42,7.63-7.63,7.63s-7.63-3.42-7.63-7.63,3.42-7.63,7.63-7.63,7.63,3.42,7.63,7.63Z"/>
  <path class="cls-2" d="M131.7,89.4c0,2.95-2.39,5.34-5.34,5.34s-5.35-2.39-5.35-5.34,2.39-5.34,5.35-5.34,5.34,2.39,5.34,5.34Z"/>
  <circle class="cls-2" cx="106.78" cy="103.58" r="6.67"/>
  <path class="cls-4" d="M89.21,132.38s-.01.07-.02.11h0c-.13.62-.21.93-.4,1.1-.02.03-.04.04-.06.06-.99.8-2.13,1.2-2.95,2.06-.14.16-.28.31-.4.5-.03-.04-.08-.05-.11-.07-.34-.17-1.14-1.45-2.13-3.3,1.09-4.19,2.55-11.67.34-15.66-4.11-6.94-9.6-11.1-13.79-11.74-1.51-2.32-2.78-4.24-3.25-5.16-1.28-2.57-5.84-9.78-5.77-11.61.08-1.85,2.34-4.89,4.34-3.53,1.99,1.37,1.19,2.64.87,5.36-.33,2.74,4.08,7.68,5.2,11.3,1.12,3.59,5.05,4.63,9.78,7.06,4.72,2.41,3.29,7.96,6.1,11.8,2.03,2.79,1.55,8.59,2.25,11.72Z"/>
  <path class="cls-5" d="M96.48,124.5c-3.3.23-5.15,2.36-6.19,4.5-.05-.84-.08-1.58-.15-2.01-.89-6.17-1.93-13.74-2.16-16.41-.25-2.69-7.85-5.53-11.05-6.55-3.2-1.02-4.4-6.43-5.92-8.12-.66-.73-1.57-3.15-2.21-5.67v-.02c-.76-3.04-1.15-6.22-.3-6.78.1-.07.21-.1.35-.1,5.59.25,5.44,6.09,6.07,10.57.64,4.49,10.1,7.29,13.94,9.68,3.84,2.41,2.8,6.73,3.04,9.29.18,2,3.7,8.23,4.59,11.61Z"/>
  <g>
    <path class="cls-3" d="M87.62,52.27c-.99-1.36-2.37-2.53-4.12-3.5-1.75-.97-3.68-1.69-5.77-2.14-2.09-.46-4.25-.72-6.46-.78-6.58-.11-12.88-1.41-18.89-3.9-.51-.19-1.1-.67-1.75-1.43-.65-.76-1.03-1.52-1.13-2.29-.37-2.81-.27-5.69.3-8.64.57-2.95,1.49-5.32,2.74-7.11,2.02-2.96,5.97-5.84,11.85-8.63,5.89-2.79,12.68-4.69,20.38-5.71,4.6-.61,8.2-.72,10.8-.35,2.6.37,4,1.3,4.19,2.76.32,2.4.23,4.29-.25,5.69-.48,1.4-1.07,2.36-1.77,2.89-.69.53-1.93,1.29-3.72,2.27-1.92.97-3.57,1.93-4.96,2.89-1.39.96-2.56,1.86-3.52,2.71-.96.84-1.57,1.28-1.83,1.31-.32.04-.5-.06-.53-.32-.07-.54.39-1.44,1.38-2.69.99-1.25,2.26-2.4,3.81-3.45,1.63-1.16,2.44-1.86,2.4-2.12-.05-.41-1.06-.49-3-.24-5.91.78-11.3,2.02-16.18,3.74-4.88,1.71-8.65,3.62-11.31,5.73-2.66,2.11-3.88,4.05-3.64,5.84.15,1.12.85,1.83,2.11,2.13,1.26.31,4,.73,8.24,1.28,4.23.55,8.05,1.31,11.47,2.29,4.89,1.37,8.6,2.98,11.12,4.82,2.52,1.85,3.95,4.09,4.3,6.74.24,1.82.04,3.71-.6,5.66-.64,1.95-1.7,3.81-3.19,5.56s-3.27,3.27-5.35,4.55c-1.78,1.05-4.05,2.11-6.82,3.19s-5.79,2.04-9.08,2.88c-3.28.84-6.45,1.46-9.48,1.86-5.59.74-10.16.8-13.7.19-3.54-.61-5.45-1.98-5.73-4.12-.13-.96.25-2.53,1.14-4.71s2.06-3.72,3.53-4.63c1.3-.72,2.59-1.21,3.85-1.46,1.27-.25,1.93-.18,1.98.2.01.1-.02.2-.11.31-.08.11-.19.2-.3.28-.12.08-.24.16-.36.24-.61.34-1.1.61-1.48.8-.38.2-.68.38-.9.56-.22.17-.31.39-.28.65.09.67,3.44.57,10.05-.3,5.75-.76,10.43-1.59,14.05-2.48,3.62-.9,6.76-2.08,9.43-3.53,2.67-1.45,5.02-3.29,7.07-5.51Z"/>
    <path class="cls-3" d="M119.82,49.84l.37,2.8c-2.06,3.52-4.05,6.23-5.99,8.14-1.93,1.91-3.65,2.96-5.16,3.16-2.1.28-3.8-.62-5.11-2.68-1.31-2.06-2.14-4.4-2.48-7-.13-1-.15-1.96-.07-2.9.08-.93.23-1.71.43-2.34.2-.62.61-1.61,1.21-2.97,2.89-6.13,5.83-9.39,8.85-9.78,1.56-.21,2.42.29,2.58,1.49.11.82-.23,2.16-1.01,4.03-.78,1.87-1.52,3.23-2.21,4.07-1.94,2.44-3.19,4.13-3.76,5.06-.57.93-.78,1.94-.64,3.01.12.92.57,1.64,1.34,2.16.77.52,1.71.71,2.8.57,1.2-.16,2.46-.77,3.79-1.84,1.33-1.07,3.01-2.73,5.06-4.97ZM114.96,33.05c-.64.08-1.28-.08-1.92-.49s-1.01-.99-1.11-1.73c-.15-1.12.22-2.45,1.12-3.97.89-1.52,1.91-2.36,3.06-2.51.77-.1,1.44.05,2.01.46.57.41.92,1.05,1.04,1.95.14,1.1-.22,2.38-1.09,3.85s-1.91,2.28-3.11,2.44Z"/>
    <path class="cls-3" d="M119.46,53.32l-.37-2.84c1.21-1.67,2.38-3.93,3.52-6.78-1.46-.02-2.25-.5-2.37-1.44-.1-.79.24-1.88,1.03-3.26s1.77-2.65,2.93-3.82c1.16-1.17,2.11-1.8,2.85-1.9.84-.11,1.31.18,1.4.87.04.28-.02.47-.16.57-.19.15-.26.39-.22.69.03.26.25.36.66.3,1.28-.17,2.85-.64,4.71-1.42,1.86-.78,3.15-1.21,3.86-1.31.59-.08,1.06.42,1.4,1.49.92,2.84,1.41,4.46,1.46,4.84.05.36-.07.72-.34,1.08-.28.36-1.09,1.11-2.43,2.25s-2.59,2.23-3.72,3.28c-1.14,1.05-2.6,2.49-4.38,4.34,1.47.46,2.56,1.04,3.29,1.75.73.71,1.43,1.85,2.11,3.43l8.59-8.77.34,2.57-8.63,9.05c.07,2.49-.45,5.09-1.56,7.81-1.11,2.72-2.49,5.21-4.14,7.49-1.65,2.27-3.34,4.18-5.06,5.71-1.72,1.54-3.02,2.37-3.89,2.48-.84.11-1.47-.09-1.87-.59-.4-.51-.68-1.28-.81-2.33-.2-1.51-.06-2.98.41-4.42.47-1.44,1.24-2.91,2.3-4.42,1.06-1.5,2.38-3.07,3.95-4.69s3.68-3.62,6.33-6c-.52-1.78-1.14-2.85-1.87-3.21-.72-.36-1.8-.67-3.22-.94s-2.2-.85-2.31-1.74c-.13-1,4.16-5.45,12.86-13.35-1.49.51-3.25,1.08-5.27,1.73-2.02.64-3.95,1.16-5.8,1.56-1.03,2.24-2.03,4.22-3,5.93-.97,1.71-1.82,3.05-2.55,4ZM130.72,62.99c-1.67,1.52-3.26,3.19-4.76,5.01-1.5,1.82-2.78,3.53-3.83,5.13-1.05,1.59-1.56,2.55-1.52,2.85.08.59.37.85.88.78.92-.12,2.04-.79,3.36-2,1.32-1.21,2.55-2.86,3.68-4.95,1.13-2.08,1.86-4.36,2.18-6.82Z"/>
    <path class="cls-3" d="M149.48,47.34l.13.96c.2,1.51.72,2.63,1.58,3.38s1.88,1.04,3.08.88c1.25-.17,2.51-.63,3.78-1.39,1.26-.76,2.5-1.72,3.7-2.87,1.2-1.15,2.65-2.66,4.35-4.55l.31,2.34c-2.43,3.85-4.79,6.88-7.08,9.06-2.29,2.19-4.73,3.45-7.34,3.79-2.27.3-4.19-.34-5.75-1.93s-2.54-3.92-2.95-6.98c-.35-2.68-.05-5.2.92-7.55.96-2.35,2.7-4.92,5.22-7.73,1.72-1.92,3.49-3.42,5.29-4.52,1.8-1.1,3.46-1.74,4.97-1.94,1.2-.16,2.19,0,2.96.45.77.46,1.24,1.23,1.38,2.33.21,1.61-.18,3.29-1.17,5.05-.99,1.75-2.61,3.58-4.87,5.48-2.26,1.9-5.09,3.81-8.51,5.74ZM149.54,44.79c2.18-1.2,4-2.57,5.46-4.11,1.46-1.54,2.5-2.97,3.12-4.29.62-1.32.89-2.26.82-2.82-.08-.59-.38-.85-.92-.78-.46.06-1.17.45-2.12,1.18-.96.72-1.91,1.63-2.84,2.71-.93,1.08-1.74,2.32-2.42,3.71s-1.04,2.85-1.1,4.4Z"/>
  </g>
  <g>
    <path class="cls-3" d="M37.69,143.87l11.74-23.72c-3.31.57-6.74,1.5-10.3,2.82-3.56,1.31-6.59,2.62-9.09,3.9-2.5,1.29-4.72,2.49-6.67,3.61-1.95,1.12-3.35,1.91-4.2,2.38-.22.03-.46-.02-.7-.15-.25-.13-.38-.31-.41-.53-.03-.25.5-1.92,1.61-4.99,1.11-3.07,2.45-6.38,4.03-9.94,10.65-5.46,20.26-8.76,28.82-9.89,9.9-1.3,17.05-.1,21.44,3.61,1.57,1.29,2.87,2.96,3.9,5.02,1.03,2.06,1.69,4.14,1.97,6.25.63,4.79.21,9.28-1.28,13.45-1.48,4.18-3.88,7.95-7.21,11.31s-7.4,6.13-12.21,8.31c-4.82,2.18-10.21,3.66-16.18,4.45-1.05.14-3.24.23-6.54.28l-3.28,8.42c.54.61.83,1.13.89,1.54.13.99.02,1.85-.34,2.58-.51,1.04-1.19,2.42-2.04,4.12-.85,1.7-1.42,2.83-1.72,3.39-.3.56-.66,1.06-1.07,1.51-.41.44-.84.7-1.29.75-.93.12-1.55-.08-1.88-.61s-.56-1.28-.69-2.27c-.19-1.41.22-3.73,1.2-6.96.99-3.23,2.56-7.56,4.7-12.98-1.58-.38-2.84-.97-3.79-1.79-.95-.82-1.49-1.67-1.6-2.57-.26-1.98.63-3.97,2.68-5.96,2.04-1.99,5.22-3.77,9.53-5.35ZM42.84,144.51l-2.13,4.96c1.22-.09,2.31-.17,3.26-.23.95-.06,1.75-.13,2.38-.22,5.59-.74,10.34-2.12,14.25-4.17,3.91-2.04,6.92-4.33,9.04-6.87,2.12-2.54,3.57-5,4.37-7.38.79-2.38,1.09-4.32.89-5.82-.27-2.08-1.32-3.6-3.14-4.56-1.82-.96-4.31-1.46-7.48-1.48-3.17-.02-7.22.29-12.14.94.11.34.2.77.27,1.28.22,1.66-.37,3.97-1.77,6.91l-6.61,14.18,6.18-1.54c.51-.07.8.14.86.62.06.42-.32.76-1.13,1.03l-7.1,2.35Z"/>
    <path class="cls-3" d="M100.08,152.33l.37,2.8c-2.06,3.52-4.05,6.23-5.99,8.14-1.93,1.91-3.65,2.96-5.16,3.16-2.1.28-3.8-.62-5.11-2.68-1.31-2.06-2.14-4.4-2.48-7.01-.13-1-.15-1.96-.07-2.89s.23-1.71.43-2.34c.2-.62.61-1.61,1.21-2.97,2.88-6.12,5.83-9.39,8.85-9.78,1.56-.21,2.42.29,2.58,1.49.11.82-.23,2.16-1.01,4.03-.78,1.87-1.52,3.23-2.21,4.08-1.94,2.44-3.19,4.12-3.76,5.06-.57.93-.78,1.94-.64,3.01.12.92.57,1.64,1.34,2.16.77.52,1.71.71,2.8.57,1.2-.16,2.46-.77,3.79-1.85,1.33-1.07,3.01-2.73,5.06-4.97ZM95.22,135.54c-.64.08-1.28-.08-1.92-.49-.64-.41-1.01-.99-1.11-1.73-.15-1.12.22-2.45,1.12-3.97s1.91-2.36,3.06-2.51c.77-.1,1.44.05,2.01.46.57.41.92,1.06,1.04,1.95.14,1.1-.22,2.38-1.09,3.85-.87,1.47-1.91,2.28-3.11,2.44Z"/>
    <path class="cls-3" d="M99.72,155.81l-.37-2.84c1.21-1.67,2.38-3.93,3.51-6.78-1.46-.02-2.25-.5-2.37-1.44-.1-.79.24-1.88,1.03-3.26.79-1.38,1.77-2.65,2.93-3.82,1.16-1.17,2.11-1.8,2.85-1.9.84-.11,1.31.18,1.4.87.04.28-.02.47-.16.57-.19.16-.26.38-.22.69.03.26.25.36.66.3,1.28-.17,2.85-.64,4.71-1.42,1.86-.78,3.15-1.21,3.87-1.31.59-.08,1.06.42,1.4,1.49.92,2.84,1.41,4.46,1.46,4.84.05.36-.07.72-.34,1.08s-1.09,1.11-2.43,2.25c-1.34,1.14-2.59,2.23-3.72,3.28s-2.6,2.49-4.38,4.34c1.46.46,2.56,1.04,3.29,1.75.73.71,1.43,1.85,2.11,3.43l8.59-8.78.34,2.57-8.63,9.05c.07,2.49-.46,5.09-1.57,7.81-1.11,2.72-2.49,5.21-4.14,7.49-1.65,2.27-3.34,4.18-5.06,5.72-1.72,1.54-3.02,2.37-3.89,2.48-.84.11-1.47-.09-1.87-.59-.4-.5-.68-1.28-.81-2.33-.2-1.51-.06-2.98.41-4.42s1.24-2.91,2.3-4.42c1.06-1.5,2.38-3.07,3.95-4.69,1.57-1.62,3.68-3.62,6.33-6-.52-1.78-1.14-2.85-1.86-3.21s-1.8-.67-3.22-.94c-1.42-.27-2.2-.85-2.32-1.74-.13-1,4.16-5.45,12.87-13.35-1.49.51-3.25,1.08-5.27,1.73-2.02.64-3.96,1.16-5.8,1.56-1.03,2.24-2.03,4.22-3,5.93-.97,1.71-1.82,3.05-2.55,4ZM110.98,165.48c-1.67,1.52-3.26,3.19-4.76,5.01-1.5,1.82-2.78,3.53-3.83,5.12-1.05,1.59-1.56,2.54-1.52,2.85.08.59.37.85.88.78.92-.12,2.04-.79,3.36-2,1.32-1.21,2.55-2.86,3.68-4.95,1.13-2.08,1.86-4.36,2.18-6.82Z"/>
    <path class="cls-3" d="M123.41,152.69l-.37-2.84c1.21-1.67,2.38-3.93,3.51-6.78-1.46-.02-2.25-.5-2.37-1.44-.1-.79.24-1.88,1.03-3.26.79-1.38,1.77-2.65,2.93-3.82s2.11-1.8,2.85-1.9c.84-.11,1.31.18,1.4.87.04.28-.02.47-.16.57-.19.16-.26.39-.22.69.03.26.25.36.66.3,1.28-.17,2.85-.64,4.71-1.42,1.86-.78,3.15-1.21,3.87-1.31.59-.08,1.05.42,1.4,1.49.92,2.84,1.41,4.46,1.46,4.84.05.36-.07.72-.35,1.08-.28.36-1.09,1.11-2.43,2.25-1.35,1.14-2.59,2.23-3.72,3.28-1.14,1.05-2.6,2.49-4.38,4.34,1.46.46,2.56,1.04,3.29,1.75.73.71,1.43,1.85,2.11,3.43l8.59-8.78.34,2.57-8.63,9.05c.07,2.49-.45,5.09-1.56,7.81-1.11,2.72-2.49,5.21-4.14,7.49-1.65,2.27-3.34,4.18-5.06,5.72-1.72,1.54-3.02,2.37-3.89,2.48-.84.11-1.47-.09-1.87-.59-.4-.5-.68-1.28-.81-2.33-.2-1.51-.06-2.98.41-4.42.47-1.44,1.24-2.91,2.3-4.42,1.06-1.5,2.38-3.07,3.94-4.69,1.57-1.62,3.68-3.62,6.33-6-.52-1.78-1.14-2.84-1.86-3.21-.72-.36-1.8-.67-3.22-.94-1.43-.27-2.2-.85-2.32-1.74-.13-1,4.16-5.45,12.87-13.35-1.49.51-3.25,1.08-5.27,1.73-2.02.64-3.95,1.16-5.8,1.56-1.03,2.24-2.03,4.22-3,5.93-.97,1.71-1.82,3.05-2.55,4ZM134.67,162.36c-1.67,1.52-3.26,3.19-4.76,5.01-1.5,1.82-2.78,3.53-3.83,5.12-1.05,1.59-1.56,2.54-1.52,2.85.08.59.37.85.88.78.92-.12,2.04-.79,3.36-2,1.32-1.21,2.55-2.86,3.68-4.95s1.86-4.36,2.18-6.82Z"/>
  </g>
  <path class="cls-9" d="M174.52,66.02c31.34,33.46,24.96,77.56-14.47,100.82-5.36,2.41-10.76,2.15-11.21.36-.43-1.69-.65-2.54-1.08-4.23-.46-1.79,3.27-4.24,7.65-6.21,32.15-19.98,36.93-54.29,11.82-82.37-3.65-3.12-6.54-6.52-5.59-8.11.89-1.5,1.34-2.25,2.23-3.76.94-1.59,6.19-.32,10.66,3.5Z"/>
  <path class="cls-9" d="M7.07,105.45c-.26-23.13,5.39-40.08,19.03-58.59,3.54-4.13,8.33-6.85,10.01-6.39,1.58.43,2.37.67,3.92,1.18,1.65.55-.41,3.5-3.99,6.91-14,15.95-20.27,30.13-22.45,51.08-.08,4.73-.44,9.45-1.39,10.52-.89,1.02-1.33,1.54-2.16,2.63-.88,1.15-2.52-2.12-2.97-7.35Z"/>
  <path class="cls-1" d="M34.45,41.98s-13.89,7.94-21.63,33.86c0,0,17.12-29.64,21.63-33.86Z"/>
  <path class="cls-1" d="M152.94,161.26s31.12-11.91,31.97-48.68c0,0,9.93,38.81-31.97,48.68Z"/>
  <path class="cls-1" d="M72.7,82.91s7.51-2.42,10.78-2.42,13.47-.64,16.03-1.02,12.29-2.82,12.4-1.6c0,0-3.58,2.5-11.95,3.26s-12.6.12-16.48,1.79-10.78,0-10.78,0Z"/>
  <path class="cls-1" d="M132.57,75s8.62-3.5,7.91,5.59c0,0-5.36-5.72-7.91-5.59Z"/>
  <path class="cls-1" d="M142.56,96.22s4.63,3.93.73,6.35l-.73-6.35Z"/>
  <path class="cls-1" d="M126.36,113.34s5.11,3.74,8.69,1.28c0,0-3.93,4.94-8.69-1.28Z"/>
  <path class="cls-8" d="M92.3,88.21s2.99,3.77-1.47,8.78c0,0,5.69-4.89,1.47-8.78Z"/>
  <path class="cls-8" d="M81.15,94.1s-2.6-4.05,2.35-8.59c0,0-6.15,4.29-2.35,8.59Z"/>
  <path class="cls-8" d="M105.71,108.83s-4.72-.93-4.57-7.64c0,0-1.17,7.41,4.57,7.64Z"/>
  <path class="cls-8" d="M131.27,89.27s-.36,4.16-6.16,4.66c0,0,6.5.31,6.16-4.66Z"/>
</svg>